PathFileType	4	(X/Y/Z)	C:\Users\°ÂÌØÂü\Desktop\20201223\Trimmed_bx_y_0_501.trc
DataRate	CameraRate	NumFrames	NumMarkers	Units	OrigDataRate	OrigDataStartFrame	OrigNumFrames
50.00	50.00	      5	43	mm	50.00	1	      1306
Frame#	Time	Top.Head			R.Acromium			L.Acromium			Sternum			R.ASIS			L.ASIS			V.Sacral			R.Thigh.Upper			R.Thigh.Front			R.Thigh.Rear			R.Knee.Lat			R.Knee.Med			R.Shank.Upper			R.Shank.Front			R.Shank.Rear			R.Ankle.Lat			R.Midfoot.Lat			R.Toe.Lat			R.Toe.Tip			R.Toe.Med			R.Ankle.Med			R.Midfoot.Sup			R.Heel			L.Thigh.Upper			L.Thigh.Front			L.Thigh.Rear			L.Knee.Lat			L.Knee.Med			L.Shank.Upper			L.Shank.Front			L.Shank.Rear			L.Ankle.Lat			L.Midfoot.Lat			L.Toe.Lat			L.Toe.Tip			L.Toe.Med			L.Ankle.Med			L.Midfoot.Sup			L.Heel			origin1 front left			origin2 front right			origin 3 back right			origin 4 back leftt			
		X1	Y1	Z1	X2	Y2	Z2	X3	Y3	Z3	X4	Y4	Z4	X5	Y5	Z5	X6	Y6	Z6	X7	Y7	Z7	X8	Y8	Z8	X9	Y9	Z9	X10	Y10	Z10	X11	Y11	Z11	X12	Y12	Z12	X13	Y13	Z13	X14	Y14	Z14	X15	Y15	Z15	X16	Y16	Z16	X17	Y17	Z17	X18	Y18	Z18	X19	Y19	Z19	X20	Y20	Z20	X21	Y21	Z21	X22	Y22	Z22	X23	Y23	Z23	X24	Y24	Z24	X25	Y25	Z25	X26	Y26	Z26	X27	Y27	Z27	X28	Y28	Z28	X29	Y29	Z29	X30	Y30	Z30	X31	Y31	Z31	X32	Y32	Z32	X33	Y33	Z33	X34	Y34	Z34	X35	Y35	Z35	X36	Y36	Z36	X37	Y37	Z37	X38	Y38	Z38	X39	Y39	Z39	X40	Y40	Z40	X41	Y41	Z41	X42	Y42	Z42	X43	Y43	Z43	

1	0.000	-651.56775	256.09106	1844.62610	-640.55646	58.18285	1536.84619	-640.39282	452.59286	1516.35815	-537.71350	263.33533	1402.95801	-537.35950	145.85741	1055.42346	-530.51172	382.16898	1056.69153	-730.68768	246.04462	1055.23206	-574.65826	91.79700	890.19769	-527.29114	150.37466	840.86121	-624.24701	89.23498	745.60394	-660.72211	121.15160	595.78601	-633.12775	227.51691	556.28552	-688.40002	122.21828	540.25549	-604.31079	166.00624	540.69946	-725.33527	125.27765	472.75549	-686.85010	146.52394	214.22977	-616.38043	78.45277	168.86058	-571.10107	52.79135	162.68102	-492.16431	92.48572	160.92331	-531.48749	144.33594	164.76765	-633.47113	218.99998	217.33655	-591.51660	189.72562	169.98610	-716.81335	214.89323	170.06512	-570.09656	432.74536	879.87323	-520.81927	371.90866	834.89349	-611.44971	433.66635	746.61932	-658.01703	412.38376	624.51355	-616.17090	310.15707	573.04492	-666.13678	410.79752	562.30731	-609.82068	371.34973	535.89893	-715.32330	413.20291	509.75598	-679.34973	413.50589	212.21295	-585.42291	468.09955	164.85577	-547.33575	479.45413	160.66841	-488.45944	429.51428	169.54507	-524.98785	387.44574	178.82005	-643.13306	326.16293	206.42538	-593.10229	346.61060	169.59459	-732.02155	342.16281	164.33029	-443.95514	448.68082	148.14725	-450.51941	75.36772	144.68111	-806.38025	82.70319	142.48715	-799.72607	456.77838	146.44754	
2	0.020	-651.85040	255.99564	1844.57983	-640.70618	58.17886	1536.91663	-640.50745	452.62482	1516.39185	-537.82062	263.41873	1403.00610	-537.29456	146.19286	1054.99866	-530.45258	382.27225	1056.80005	-730.85388	246.02393	1055.29480	-574.63202	91.74338	890.25562	-527.30798	150.39761	840.85168	-624.22980	89.23534	745.63196	-660.57422	121.26623	595.72144	-633.17810	227.40271	556.27203	-688.37903	122.25805	540.19989	-604.27942	165.95683	540.70532	-725.33142	125.34145	472.75363	-686.84143	146.49319	214.27325	-616.33453	78.49072	168.87497	-571.23047	52.75930	162.72186	-492.14896	92.53168	160.97151	-531.50574	144.40591	164.71114	-633.05011	219.34135	217.87230	-591.55127	189.65715	169.96739	-716.79755	214.87683	169.99269	-569.91919	432.83893	880.26758	-520.86328	371.94388	834.94275	-611.53436	433.60855	746.59131	-657.98334	412.39334	624.43109	-616.30029	310.16327	572.85248	-665.97217	410.94235	561.92828	-609.88556	371.29474	535.91461	-715.40704	413.17792	509.78131	-679.37921	413.47922	212.24017	-585.54718	467.95578	165.13936	-547.33862	479.42911	160.65872	-488.49283	429.51147	169.52130	-525.02301	387.40759	178.74695	-643.11261	326.17001	206.44502	-593.15369	346.39926	169.37711	-731.97034	342.15680	164.45311	-443.99530	448.66214	148.13638	-450.51083	75.32872	144.62830	-806.33008	82.71000	142.53522	-799.85028	456.84460	146.39339	
3	0.040	-652.12885	255.93130	1844.51746	-640.81525	58.17069	1536.97791	-640.59039	452.64621	1516.42407	-537.90375	263.48822	1403.07178	-537.25824	146.42070	1054.70654	-530.44293	382.34558	1056.87122	-730.96130	246.00967	1055.33081	-574.62683	91.72693	890.28461	-527.31537	150.40671	840.84760	-624.22211	89.23569	745.64508	-660.49573	121.34932	595.67450	-633.21942	227.32497	556.24371	-688.36646	122.26576	540.17450	-604.24982	165.92416	540.70624	-725.33716	125.37922	472.74829	-686.83740	146.47592	214.28493	-616.29248	78.50967	168.87537	-571.30255	52.73992	162.75136	-492.13940	92.55843	161.00037	-531.50574	144.44841	164.66904	-632.66248	219.64424	218.32433	-591.57446	189.61198	169.95595	-716.78619	214.86633	169.93506	-569.76794	432.92902	880.54120	-520.89789	371.97067	834.98218	-611.60834	433.59183	746.59167	-657.98529	412.39572	624.39136	-616.37000	310.17590	572.73181	-665.86530	411.02139	561.56195	-609.94678	371.26773	535.91351	-715.47345	413.16812	509.79971	-679.38855	413.47577	212.25702	-585.65210	467.83093	165.39987	-547.32825	479.41739	160.66550	-488.51926	429.51788	169.49481	-525.04150	387.38773	178.70578	-643.06610	326.17203	206.48608	-593.21002	346.24878	169.19875	-731.96600	342.18958	164.48959	-444.01749	448.65146	148.13042	-450.50565	75.31269	144.59529	-806.30481	82.70355	142.56648	-799.89807	456.85214	146.33676	
4	0.060	-652.45062	255.90895	1844.45166	-640.87317	58.16293	1537.02979	-640.64642	452.65652	1516.46582	-537.94574	263.53928	1403.15979	-537.26404	146.52338	1054.57617	-530.48248	382.38470	1056.90295	-730.99701	245.99771	1055.32458	-574.64606	91.74237	890.28961	-527.30933	150.39767	840.85455	-624.22668	89.23981	745.64337	-660.49615	121.41650	595.63391	-633.23877	227.29140	556.21692	-688.35864	122.24287	540.17804	-604.23688	165.90913	540.68622	-725.35400	125.39323	472.74390	-686.83582	146.48303	214.26259	-616.26672	78.51564	168.86432	-571.31171	52.72975	162.76492	-492.13663	92.56302	161.00682	-531.48529	144.44960	164.65851	-632.42194	219.82562	218.57613	-591.57495	189.61075	169.95837	-716.78326	214.85310	169.89253	-569.74066	432.98691	880.60773	-520.92535	371.98776	835.00458	-611.67096	433.62354	746.62756	-658.01227	412.40067	624.39313	-616.37653	310.19208	572.69702	-665.83734	411.02078	561.29510	-609.99036	371.26401	535.90302	-715.51550	413.16797	509.79581	-679.37756	413.48907	212.25276	-585.71179	467.74158	165.58623	-547.30536	479.41962	160.69109	-488.53632	429.53366	169.46770	-525.04956	387.39584	178.69298	-642.98566	326.16409	206.55324	-593.27679	346.17746	169.08141	-731.98669	342.23032	164.43280	-444.02353	448.64786	148.12888	-450.50580	75.32010	144.58884	-806.30774	82.68282	142.57895	-799.82971	456.85962	146.20888	
5	0.080	-652.86096	255.91512	1844.41187	-640.89490	58.16753	1537.08325	-640.70532	452.66153	1516.53088	-537.94818	263.57028	1403.25159	-537.30756	146.55092	1054.55933	-530.54822	382.40906	1056.92078	-730.99554	245.98962	1055.28943	-574.67694	91.76403	890.30127	-527.29456	150.38152	840.87592	-624.23676	89.24812	745.63800	-660.53345	121.48361	595.58734	-633.23730	227.29758	556.20557	-688.34949	122.21663	540.19092	-604.24731	165.90372	540.64087	-725.37134	125.39589	472.74637	-686.82849	146.50046	214.23347	-616.27075	78.52673	168.85944	-571.29199	52.72086	162.76543	-492.13727	92.55994	161.00420	-531.45911	144.41580	164.69142	-632.41705	219.83122	218.57408	-591.55322	189.64690	169.97307	-716.78888	214.83533	169.86864	-569.89136	432.99338	880.48999	-520.96198	371.99350	835.00696	-611.73596	433.67310	746.66241	-658.04279	412.42551	624.42310	-616.35059	310.20554	572.72137	-665.85126	410.98572	561.18292	-610.00781	371.26135	535.90149	-715.54376	413.16571	509.77444	-679.36115	413.50119	212.23395	-585.71930	467.69067	165.68687	-547.29425	479.42780	160.72478	-488.55716	429.55325	169.43680	-525.05719	387.42816	178.69295	-642.88580	326.15671	206.63181	-593.32483	346.19028	169.06775	-731.99768	342.23346	164.33794	-444.02319	448.64749	148.12906	-450.51346	75.34146	144.59888	-806.32275	82.67249	142.56387	-799.65143	456.95746	145.94145	
